<svg width="197" height="49" viewBox="0 0 197 49" fill="none" xmlns="http://www.w3.org/2000/svg">
<path d="M26.9931 28.0967C26.7023 29.8364 26.0191 31.4336 24.9435 32.8881C23.8678 34.3141 22.3997 35.4692 20.5391 36.3534C18.7076 37.2375 16.5418 37.6796 14.0416 37.6796H9.41922L7.45688 48.4603H0L5.40733 18.4282H17.4866C20.6845 18.4282 23.0974 19.127 24.7255 20.5245C26.3535 21.8935 27.1675 23.7616 27.1675 26.1288C27.1675 26.8418 27.1093 27.4977 26.9931 28.0967ZM14.4777 31.9469C17.2686 31.9469 18.9111 30.6635 19.4053 28.0967C19.4635 27.6403 19.4926 27.3124 19.4926 27.1127C19.4926 26.2001 19.1873 25.5013 18.5768 25.0165C17.9954 24.5031 17.0941 24.2464 15.8731 24.2464H11.8176L10.4658 31.9469H14.4777Z" fill="white"/>
<path d="M27.9098 36.4817C28.3459 34.0289 29.2035 31.8756 30.4827 30.0218C31.7618 28.168 33.3026 26.7419 35.1051 25.7437C36.9075 24.7455 38.8117 24.2464 40.8177 24.2464C42.5329 24.2464 43.9719 24.5886 45.1348 25.2731C46.2977 25.9576 47.1407 26.856 47.664 27.9683L48.2745 24.5886H55.7314L51.4143 48.4603H43.9574L44.6115 45.0806C43.6812 46.1929 42.5038 47.0913 41.0793 47.7758C39.6548 48.4603 38.0849 48.8026 36.3697 48.8026C34.6545 48.8026 33.1282 48.4175 31.7909 47.6475C30.4827 46.8774 29.4652 45.7936 28.7384 44.3961C28.0116 42.9701 27.6482 41.3017 27.6482 39.3908C27.6482 38.4781 27.7354 37.5084 27.9098 36.4817ZM46.1378 36.5245C46.225 36.0111 46.2686 35.5405 46.2686 35.1127C46.2686 33.7152 45.8471 32.6172 45.004 31.8186C44.19 31.02 43.1434 30.6207 41.8642 30.6207C40.3816 30.6207 39.0297 31.1484 37.8087 32.2036C36.5877 33.2304 35.8173 34.6564 35.4975 36.4817C35.4103 36.9951 35.3667 37.4657 35.3667 37.8935C35.3667 39.291 35.7737 40.4033 36.5877 41.2304C37.4308 42.0289 38.4774 42.4282 39.7275 42.4282C41.2101 42.4282 42.562 41.9006 43.783 40.8453C45.004 39.7901 45.7889 38.3498 46.1378 36.5245Z" fill="white"/>
<path d="M75.9527 24.332C78.3947 24.332 80.3135 25.0022 81.7089 26.3427C83.1043 27.6831 83.8021 29.5512 83.8021 31.9469C83.8021 32.7455 83.7148 33.6011 83.5404 34.5138L81.0112 48.4603H73.5979L75.9527 35.4977C76.0399 35.0129 76.0835 34.5851 76.0835 34.2143C76.0835 33.0165 75.7347 32.0895 75.0369 31.4336C74.3683 30.7776 73.4235 30.4496 72.2025 30.4496C70.7489 30.4496 69.5279 30.8917 68.5394 31.7758C67.551 32.6599 66.9114 33.9006 66.6207 35.4977V35.2838L64.2659 48.4603H56.809L61.0825 24.5886H68.5394L67.9725 27.7972C68.9319 26.7419 70.0948 25.9006 71.4611 25.2731C72.8566 24.6457 74.3538 24.332 75.9527 24.332Z" fill="white"/>
<path d="M86.8907 36.4817C87.3268 34.0289 88.1844 31.8756 89.4635 30.0218C90.7427 28.168 92.2835 26.7419 94.0859 25.7437C95.8884 24.7455 97.7926 24.2464 99.7985 24.2464C101.514 24.2464 102.953 24.5886 104.116 25.2731C105.279 25.9576 106.122 26.856 106.645 27.9683L107.255 24.5886H114.712L110.395 48.4603H102.938L103.592 45.0806C102.662 46.1929 101.485 47.0913 100.06 47.7758C98.6357 48.4603 97.0658 48.8026 95.3505 48.8026C93.6353 48.8026 92.1091 48.4175 90.7718 47.6475C89.4635 46.8774 88.446 45.7936 87.7192 44.3961C86.9924 42.9701 86.629 41.3017 86.629 39.3908C86.629 38.4781 86.7163 37.5084 86.8907 36.4817ZM105.119 36.5245C105.206 36.0111 105.249 35.5405 105.249 35.1127C105.249 33.7152 104.828 32.6172 103.985 31.8186C103.171 31.02 102.124 30.6207 100.845 30.6207C99.3624 30.6207 98.0106 31.1484 96.7896 32.2036C95.5686 33.2304 94.7982 34.6564 94.4784 36.4817C94.3912 36.9951 94.3476 37.4657 94.3476 37.8935C94.3476 39.291 94.7546 40.4033 95.5686 41.2304C96.4117 42.0289 97.4582 42.4282 98.7083 42.4282C100.191 42.4282 101.543 41.9006 102.764 40.8453C103.985 39.7901 104.77 38.3498 105.119 36.5245Z" fill="white"/>
<path d="M116.488 36.5245C116.924 34.0432 117.825 31.8756 119.191 30.0218C120.558 28.168 122.244 26.7419 124.25 25.7437C126.285 24.7455 128.494 24.2464 130.878 24.2464C133.931 24.2464 136.344 25.0307 138.117 26.5993C139.89 28.168 140.835 30.3783 140.951 33.2304H133.015C132.695 31.405 131.561 30.4924 129.613 30.4924C128.247 30.4924 127.07 31.02 126.081 32.0753C125.093 33.102 124.424 34.5851 124.075 36.5245C123.959 37.1234 123.901 37.7509 123.901 38.4068C123.901 39.7473 124.221 40.774 124.86 41.487C125.5 42.2001 126.372 42.5566 127.477 42.5566C129.395 42.5566 130.834 41.6439 131.794 39.8186H139.774C138.64 42.6136 136.896 44.8097 134.541 46.4068C132.186 48.004 129.497 48.8026 126.474 48.8026C123.334 48.8026 120.834 47.9612 118.973 46.2785C117.142 44.5673 116.226 42.2428 116.226 39.3052C116.226 38.4211 116.313 37.4942 116.488 36.5245Z" fill="white"/>
<path d="M161.467 24.332C163.851 24.332 165.726 25.0022 167.093 26.3427C168.488 27.6831 169.186 29.5512 169.186 31.9469C169.186 32.7455 169.099 33.6011 168.924 34.5138L166.395 48.4603H158.982L161.337 35.4977C161.424 35.0129 161.467 34.5851 161.467 34.2143C161.467 33.0165 161.119 32.0895 160.421 31.4336C159.752 30.7776 158.807 30.4496 157.586 30.4496C156.133 30.4496 154.912 30.8917 153.923 31.7758C152.935 32.6599 152.295 33.9006 152.005 35.4977V35.4122L149.65 48.4603H142.193L147.905 16.8026H155.362L153.4 27.7544C154.359 26.6992 155.537 25.8721 156.932 25.2731C158.328 24.6457 159.839 24.332 161.467 24.332Z" fill="white"/>
<path d="M186.752 24.2464C189.892 24.2464 192.378 25.0878 194.209 26.7705C196.07 28.4247 197 30.692 197 33.5726C197 34.5138 196.927 35.3551 196.782 36.0967C196.666 36.7526 196.491 37.4514 196.259 38.1929H179.383C179.354 38.364 179.339 38.635 179.339 39.0058C179.339 40.2607 179.688 41.2161 180.386 41.8721C181.083 42.528 182.014 42.856 183.176 42.856C185.037 42.856 186.462 42.086 187.45 40.5459H195.387C194.34 42.9701 192.639 44.9523 190.284 46.4924C187.93 48.0325 185.284 48.8026 182.348 48.8026C179.208 48.8026 176.693 47.9469 174.804 46.2357C172.943 44.5245 172.013 42.2001 172.013 39.2624C172.013 38.3783 172.1 37.4657 172.275 36.5245C172.711 34.0432 173.612 31.8756 174.978 30.0218C176.345 28.168 178.045 26.7419 180.08 25.7437C182.115 24.7455 184.339 24.2464 186.752 24.2464ZM189.456 34.471C189.514 34.0717 189.543 33.8008 189.543 33.6582C189.543 32.5173 189.18 31.6475 188.453 31.0485C187.726 30.4211 186.767 30.1074 185.575 30.1074C184.296 30.1074 183.162 30.4924 182.173 31.2624C181.214 32.004 180.516 33.0735 180.08 34.471H189.456Z" fill="white"/>
<path d="M22.425 10.381L22.186 14.573C22.1199 15.7335 23.753 16.0539 24.1303 14.9544L25.3523 11.3927C25.5019 10.9568 25.3341 10.4751 24.9462 10.2264L23.9632 9.59612C23.319 9.18313 22.4686 9.6171 22.425 10.381Z" fill="white"/>
<path d="M33.9684 2.83728L26.3127 15.83C25.7272 16.8237 27.011 17.8554 27.8554 17.0698L37.8664 7.75561C38.2202 7.42641 38.288 6.89128 38.0274 6.48427L35.6722 2.80573C35.2701 2.17777 34.347 2.19486 33.9684 2.83728Z" fill="white"/>
<path d="M37.1985 14.7125L30.1907 19.5029C29.2385 20.1537 29.9625 21.6331 31.0607 21.2805L38.3891 18.9279C38.8493 18.7802 39.1379 18.3245 39.0749 17.8453L38.7542 15.4077C38.657 14.6684 37.814 14.2918 37.1985 14.7125Z" fill="white"/>
</svg>
