<svg viewBox="0 0 1000 521" fill="none" xmlns="http://www.w3.org/2000/svg">
<path d="M783.168 520.909H0V179.306H783.168V520.909ZM21.2959 499.614H761.437V200.602H21.2959V499.614Z" fill="#375323"/>
<path d="M293.363 358.365V415.299C293.363 423.991 291.19 430.945 286.409 435.291C281.628 440.072 275.109 442.245 266.851 442.245C257.725 442.245 250.336 439.637 245.121 434.422C239.906 429.207 237.298 421.818 237.298 412.257H256.421C256.421 420.08 259.463 423.991 265.113 423.991C270.328 423.991 272.936 420.949 272.936 414.865V358.365H293.363Z" fill="#D55A56"/>
<path d="M372.028 375.75V441.376H351.601V429.641C349.862 433.553 346.82 436.595 343.343 438.768C339.432 440.941 335.086 442.245 330.305 442.245C322.917 442.245 316.832 439.637 312.486 434.857C308.14 429.641 305.967 423.122 305.967 413.995V375.75H325.959V411.388C325.959 415.734 327.263 419.211 329.436 421.818C331.609 424.426 335.086 425.73 338.997 425.73C342.909 425.73 346.386 424.426 348.559 421.818C350.732 419.211 352.035 415.734 352.035 410.953V376.184H372.028V375.75Z" fill="#D55A56"/>
<path d="M445.476 382.704C449.822 387.919 451.995 394.438 451.995 403.565V441.811H432.003V406.173C432.003 401.827 430.699 398.35 428.526 395.742C426.353 393.135 423.311 391.831 419.399 391.831C415.488 391.831 412.011 393.135 409.838 395.742C407.23 398.35 406.361 401.827 406.361 406.607V441.376H386.369V375.75H406.361V387.919C408.099 384.008 411.141 380.965 414.618 378.792C418.53 376.619 422.876 375.316 427.657 375.316C435.045 374.881 441.13 377.489 445.476 382.704Z" fill="#D55A56"/>
<path d="M503.714 378.357C507.191 380.53 509.798 383.572 511.537 387.484V375.749H531.529V441.375C531.529 447.46 530.225 453.11 528.052 457.891C525.879 462.671 521.967 466.583 517.187 469.625C512.406 472.667 506.321 473.971 498.933 473.971C488.937 473.971 481.114 471.798 475.03 467.018C468.945 462.237 465.468 456.152 464.164 447.895H484.156C484.591 450.502 486.329 452.675 488.502 453.979C490.675 455.283 493.718 456.152 497.195 456.152C501.541 456.152 504.583 454.848 507.191 452.675C509.798 450.068 511.102 446.591 511.102 441.375V429.641C509.364 433.553 506.756 436.595 503.279 438.768C499.802 440.941 495.456 442.245 490.241 442.245C485.026 442.245 479.81 440.941 475.899 438.333C471.553 435.726 468.076 431.814 465.903 426.599C463.295 421.383 461.991 415.733 461.991 408.78C461.991 401.826 463.295 395.741 465.903 390.961C468.51 385.745 471.553 381.834 475.899 379.226C480.245 376.619 485.026 375.315 490.241 375.315C495.456 374.88 499.802 376.184 503.714 378.357ZM486.764 397.045C484.156 400.088 482.852 403.999 482.852 408.78C482.852 413.995 484.156 417.907 486.764 420.514C489.372 423.556 492.849 424.86 497.195 424.86C501.541 424.86 505.018 423.556 507.625 420.514C510.233 417.472 511.537 413.56 511.537 408.78C511.537 403.999 510.233 400.088 507.625 397.045C505.018 394.003 501.541 392.699 497.195 392.699C492.849 392.699 489.372 394.003 486.764 397.045Z" fill="#D55A56"/>
<path d="M565.863 354.454V441.811H545.871V354.454H565.863Z" fill="#D55A56"/>
<path d="M641.486 412.257H595.852C596.287 417.038 597.156 420.949 599.763 423.122C601.936 425.295 604.979 426.165 608.456 426.165C611.498 426.165 614.106 425.295 615.844 423.992C618.017 422.688 619.321 420.515 619.755 418.342H641.051C640.182 423.122 638.444 427.034 635.401 430.945C632.359 434.422 628.882 437.464 624.536 439.637C620.19 441.811 614.975 442.68 609.759 442.68C603.24 442.68 597.59 441.376 592.81 438.768C588.029 436.161 584.117 432.249 581.075 427.034C578.033 421.818 576.729 416.169 576.729 409.215C576.729 402.261 578.033 396.176 581.075 391.396C583.683 386.18 587.594 382.269 592.81 379.661C598.025 377.054 603.675 375.75 610.194 375.75C616.713 375.75 622.363 377.054 627.578 379.661C632.359 382.269 636.271 386.18 638.878 390.961C641.486 395.742 642.79 401.392 642.79 407.476C641.921 408.346 641.921 410.519 641.486 412.257ZM618.017 394.003C615.409 391.83 612.802 390.961 609.325 390.961C605.413 390.961 602.371 392.265 600.198 394.438C597.59 396.611 596.286 399.653 596.286 403.999H621.929C621.929 399.653 620.625 396.176 618.017 394.003Z" fill="#D55A56"/>
<path d="M716.238 421.384V441.376H650.177V421.384H716.238Z" fill="#375323"/>
<path d="M142.118 314.035C138.641 320.554 133.426 325.335 126.907 328.812C120.388 332.288 112.565 334.027 103.873 334.027H72.5806V251.016H103.873C112.999 251.016 120.388 252.755 126.907 256.232C133.426 259.709 138.641 264.489 142.118 271.008C145.595 277.093 147.334 284.481 147.334 292.739C147.334 300.562 145.595 307.95 142.118 314.035ZM120.388 310.123C124.734 305.777 126.907 300.127 126.907 292.739C126.907 285.351 124.734 279.266 120.388 275.355C116.042 271.008 109.957 269.27 102.134 269.27H92.5726V317.077H102.134C109.957 316.208 116.042 314.035 120.388 310.123Z" fill="#375323"/>
<path d="M159.937 242.325C162.11 240.151 165.153 239.282 168.63 239.282C172.106 239.282 175.149 240.151 177.322 242.325C179.495 244.498 180.799 246.671 180.799 249.713C180.799 252.755 179.495 255.363 177.322 257.101C175.149 259.274 172.106 260.144 168.63 260.144C165.153 260.144 162.11 259.274 159.937 257.101C157.764 254.928 156.46 252.755 156.46 249.713C156.895 247.105 157.764 244.498 159.937 242.325ZM178.626 268.401V334.462H158.634V268.401H178.626Z" fill="#375323"/>
<path d="M230.779 271.008C234.256 273.181 236.864 276.224 238.602 280.135V268.401H258.594V334.027C258.594 340.111 257.29 345.761 255.117 350.542C252.944 355.323 249.033 359.234 244.252 362.277C239.471 365.319 233.387 366.623 225.999 366.623C216.002 366.623 208.18 364.45 202.095 359.669C196.01 354.888 192.534 348.804 191.23 340.546H211.222C211.656 343.154 213.395 345.327 215.568 346.631C217.741 347.934 220.783 348.804 224.26 348.804C228.606 348.804 231.648 347.5 234.256 345.327C236.864 342.719 238.168 339.242 238.168 334.027V322.292C236.429 326.204 233.822 329.246 230.345 331.419C226.868 333.592 222.522 334.896 217.306 334.896C212.091 334.896 206.876 333.592 202.964 330.985C198.618 328.377 195.141 324.465 192.968 319.25C190.36 314.035 189.057 308.385 189.057 301.431C189.057 294.477 190.36 288.393 192.968 283.612C195.576 278.397 198.618 274.485 202.964 271.878C207.31 269.27 212.091 267.966 217.306 267.966C222.522 267.531 226.868 268.835 230.779 271.008ZM213.829 289.697C211.222 292.739 209.918 296.65 209.918 301.431C209.918 306.646 211.222 310.558 213.829 313.166C216.437 316.208 219.914 317.512 224.26 317.512C228.606 317.512 232.083 316.208 234.691 313.166C237.298 310.123 238.602 306.212 238.602 301.431C238.602 296.65 237.298 292.739 234.691 289.697C232.083 286.654 228.606 285.35 224.26 285.35C219.914 285.35 216.437 286.654 213.829 289.697Z" fill="#375323"/>
<path d="M274.24 242.325C276.413 240.151 279.455 239.282 282.932 239.282C286.409 239.282 289.451 240.151 291.624 242.325C293.798 244.498 295.101 246.671 295.101 249.713C295.101 252.755 293.798 255.363 291.624 257.101C289.451 259.274 286.409 260.144 282.932 260.144C279.455 260.144 276.413 259.274 274.24 257.101C272.067 254.928 270.763 252.755 270.763 249.713C270.763 247.105 271.632 244.498 274.24 242.325ZM292.928 268.401V334.462H272.936V268.401H292.928Z" fill="#375323"/>
<path d="M343.777 317.078V334.462H334.651C326.828 334.462 320.743 332.724 316.831 328.812C312.485 324.901 310.312 318.816 310.312 309.689V285.351H301.62V268.401H310.312V252.321H330.304V268.401H343.343V285.351H330.304V309.689C330.304 312.297 330.739 314.035 332.043 314.905C332.912 315.774 335.085 316.643 337.258 316.643H343.777V317.078Z" fill="#375323"/>
<path d="M393.323 271.008C396.8 273.181 399.407 276.224 401.146 280.135V268.401H421.138V334.461H401.146V322.727C399.407 326.639 396.8 329.681 393.323 331.854C389.846 334.027 385.5 335.331 380.284 335.331C375.069 335.331 369.854 334.027 365.942 331.419C361.596 328.812 358.119 324.9 355.946 319.685C352.904 314.469 352.035 308.385 352.035 301.431C352.035 294.477 353.339 288.393 355.946 283.612C358.554 278.397 361.596 274.485 365.942 271.878C370.288 269.27 375.069 267.966 380.284 267.966C385.065 267.531 389.411 268.835 393.323 271.008ZM376.373 289.697C373.765 292.739 372.461 296.65 372.461 301.431C372.461 306.646 373.765 310.558 376.373 313.166C378.981 316.208 382.457 317.512 386.804 317.512C391.15 317.512 394.626 316.208 397.234 313.166C399.842 310.123 401.146 306.212 401.146 301.431C401.146 296.65 399.842 292.739 397.234 289.697C394.626 286.654 391.15 285.35 386.804 285.35C382.457 285.35 378.981 286.654 376.373 289.697Z" fill="#375323"/>
<path d="M455.472 247.105V334.462H435.48V247.105H455.472Z" fill="#375323"/>
<path d="M709.718 179.306C707.545 165.399 704.502 155.838 699.722 155.403C695.81 154.968 694.072 164.53 693.637 179.306H709.718Z" fill="#D55A56"/>
<path d="M759.263 179.307C765.782 146.711 768.39 113.68 760.132 111.073C752.744 108.9 746.66 144.972 742.748 179.307H759.263Z" fill="#D55A56"/>
<path d="M783.167 287.959V304.909C810.547 307.951 832.713 308.386 826.193 300.563C820.544 294.044 802.724 290.132 783.167 287.959Z" fill="#D55A56"/>
<path d="M998.299 82.8228C968.311 73.2614 898.339 125.849 898.339 125.849C898.339 125.849 933.977 34.1465 907.031 51.9655C896.6 58.9192 886.17 131.499 885.3 136.28C878.781 139.757 870.089 143.668 860.528 148.884C855.747 151.491 850.097 154.534 844.882 157.576C857.485 127.153 872.262 61.0923 861.397 57.1808C851.401 53.7039 839.666 139.322 836.624 162.357C830.974 165.399 825.759 168.876 819.674 172.353C814.459 175.829 808.809 179.306 803.159 183.218C813.155 161.487 844.012 91.9496 825.759 86.7343C807.071 81.519 795.771 168.441 793.163 190.172C789.686 192.779 786.209 195.387 782.732 197.56V206.252C787.079 202.775 791.425 199.298 795.771 196.256C817.067 205.818 933.108 257.536 907.466 228.417C888.343 206.687 821.413 193.648 804.028 190.606C810.547 186.26 816.632 181.914 822.717 178.003C827.932 174.96 832.713 171.483 837.493 168.876C854.443 173.656 962.227 203.645 953.969 187.999C946.146 173.222 866.178 165.399 846.186 163.66C851.835 160.183 857.485 157.141 862.266 154.534C874.435 148.014 884.431 142.799 891.385 139.322C917.027 147.145 1000.04 170.614 981.349 152.795C962.661 134.976 916.158 133.238 901.816 133.238L901.381 131.934C922.242 123.676 1013.51 87.6035 998.299 82.8228Z" fill="#D55A56"/>
<path d="M783.167 234.936V249.278C825.759 257.97 881.389 267.532 874.435 255.363C867.481 243.194 818.805 237.544 783.167 234.936Z" fill="#D55A56"/>
<path d="M766.653 156.706C747.965 153.664 714.5 167.571 691.9 178.871H735.796C763.611 169.744 784.907 159.748 766.653 156.706Z" fill="#375323"/>
<path d="M671.472 168.441C670.168 171.918 669.299 175.395 667.995 178.871H674.08C674.949 175.829 675.818 172.787 676.687 170.179C678.426 164.964 680.164 159.749 681.903 154.968C696.68 148.449 791.425 106.726 776.213 100.207C761.871 94.1223 700.591 135.41 685.38 145.841C687.553 140.191 689.726 134.541 691.464 129.76C696.245 118.026 700.156 108.464 703.633 101.945C726.233 92.3839 799.682 60.6573 775.779 58.4843C751.875 56.3112 717.541 82.8225 707.545 91.0801L706.241 90.6455C715.802 74.1303 759.698 -4.96885 746.225 0.24648C719.279 10.6771 699.722 89.3416 699.722 89.3416C699.722 89.3416 671.472 2.85414 662.78 31.5384C659.303 42.8383 694.507 100.641 696.68 104.553C693.637 110.638 690.16 118.895 686.249 128.022C684.076 132.803 682.337 138.018 680.164 143.233C671.038 114.114 643.222 58.0497 633.226 61.9612C624.1 65.438 665.822 133.237 677.122 151.491C675.384 156.706 673.211 162.791 671.472 168.441Z" fill="#375323"/>
<path d="M783.168 310.124C803.16 298.389 821.848 284.482 816.198 276.224C811.852 269.705 797.945 277.093 783.168 288.393V310.124Z" fill="#375323"/>
<path d="M614.104 179.306C604.977 166.267 597.154 157.575 592.374 159.748C589.331 161.052 591.504 168.875 597.154 179.306H614.104Z" fill="#375323"/>
<path d="M933.543 367.927C918.766 344.892 843.144 341.85 843.144 341.85C843.144 341.85 917.463 299.693 889.213 297.085C878.348 296.216 831.844 338.808 828.802 341.85C822.718 340.546 814.46 338.808 805.333 336.635C800.552 335.765 795.337 334.896 790.122 334.027C815.329 320.554 861.398 284.047 856.183 275.789C851.402 267.966 799.249 316.643 783.168 331.854V343.154C798.379 364.45 844.448 428.337 847.49 414.43C850.533 400.088 800.987 351.411 788.818 339.242C794.468 340.111 799.683 340.981 804.898 341.85C816.633 344.023 826.194 346.196 832.714 347.5C845.752 366.623 888.344 427.903 885.736 405.738C883.128 383.573 852.706 357.061 843.144 349.238L843.579 347.934C860.529 353.584 941.366 379.661 933.543 367.927Z" fill="#375323"/>
<path d="M664.085 179.306C657.131 153.229 640.181 97.5991 625.404 103.684C612.366 109.334 635.835 152.36 651.915 179.306H664.085Z" fill="#375323"/>
<path d="M783.168 386.615V416.169C789.687 424.426 794.033 426.599 794.033 416.169C793.599 407.911 789.253 397.48 783.168 386.615Z" fill="#375323"/>
</svg>
